<svg xmlns="http://www.w3.org/2000/svg" width="48.579" height="60.528" viewBox="0 0 48.579 60.528">
  <path id="ic_replay_10_24px" d="M28.29,13.106V1L13.109,16.132,28.29,31.264V19.158A18.159,18.159,0,1,1,10.072,37.317H4A24.29,24.29,0,1,0,28.29,13.106ZM24.95,46.4H22.217V36.409l-3.036.908V35.2l5.465-1.816h.3V46.4Zm13.056-5.448a5.882,5.882,0,0,1-.3,2.421l-.911,1.816s-.911.908-1.518.908-1.214.3-1.822.3a3.862,3.862,0,0,1-1.822-.3c-.607-.3-.911-.605-1.518-.908s-.607-.908-.911-1.816a6.644,6.644,0,0,1-.3-2.421V38.83a5.882,5.882,0,0,1,.3-2.421l.911-1.816s.911-.908,1.518-.908,1.214-.3,1.822-.3a3.862,3.862,0,0,1,1.822.3c.607.3.911.605,1.518.908s.607.908.911,1.816a6.644,6.644,0,0,1,.3,2.421v2.118Zm-2.733-2.421V37.014a3.042,3.042,0,0,1-.3-.908c0-.3-.3-.3-.607-.605a1.522,1.522,0,0,0-1.822,0l-.607.605a3.042,3.042,0,0,0-.3.908v6.053a3.042,3.042,0,0,1,.3.908c0,.3.3.3.607.605a1.522,1.522,0,0,0,1.822,0l.607-.605a3.042,3.042,0,0,0,.3-.908Z" transform="translate(-4 -1)" fill="#fff"/>
</svg>
