<svg width="79" height="79" viewBox="0 0 79 79" fill="none" xmlns="http://www.w3.org/2000/svg">
<path d="M25.245 56.5H33.2927V21.9185H25.245V56.5ZM39.308 3.05216e-05C31.514 0.0251313 23.9021 2.35927 17.4338 6.70768C10.9655 11.0561 5.93078 17.2237 2.9655 24.4317C0.000225782 31.6397 -0.762622 39.5647 0.773298 47.206C2.30922 54.8472 6.07502 61.862 11.5951 67.3644C17.1152 72.8668 24.1421 76.61 31.7882 78.1213C39.4344 79.6327 47.3569 78.8443 54.5553 75.8559C61.7537 72.8675 67.9052 67.813 72.2327 61.3307C76.5603 54.8484 78.87 47.2291 78.87 39.435C78.8493 28.9606 74.6705 18.9229 67.2521 11.5282C59.8336 4.13354 49.7825 -0.0129793 39.308 3.05216e-05ZM39.308 70.983C33.0728 70.9629 26.9834 69.0955 21.8088 65.6167C16.6342 62.138 12.6065 57.2038 10.2343 51.4374C7.86213 45.671 7.25191 39.331 8.48069 33.218C9.70947 27.1051 12.7221 21.4933 17.1382 17.0914C21.5543 12.6895 27.1758 9.695 33.2927 8.48596C39.4096 7.27692 45.7477 7.9076 51.5064 10.2984C57.2651 12.6891 62.1862 16.7327 65.6482 21.9185C69.1103 27.1044 70.958 33.1998 70.958 39.435C70.9334 47.8122 67.5877 55.8377 61.6546 61.7517C55.7215 67.6657 47.6852 70.9855 39.308 70.983Z" fill="white"/>
<path d="M25.245 56.5H33.2927V21.9185H25.245V56.5ZM39.308 3.05216e-05C31.514 0.0251313 23.9021 2.35927 17.4338 6.70768C10.9655 11.0561 5.93078 17.2237 2.9655 24.4317C0.000225782 31.6397 -0.762622 39.5647 0.773298 47.206C2.30922 54.8472 6.07502 61.862 11.5951 67.3644C17.1152 72.8668 24.1421 76.61 31.7882 78.1213C39.4344 79.6327 47.3569 78.8443 54.5553 75.8559C61.7537 72.8675 67.9052 67.813 72.2327 61.3307C76.5603 54.8484 78.87 47.2291 78.87 39.435C78.8493 28.9606 74.6705 18.9229 67.2521 11.5282C59.8336 4.13354 49.7825 -0.0129793 39.308 3.05216e-05ZM39.308 70.983C33.0728 70.9629 26.9834 69.0955 21.8088 65.6167C16.6342 62.138 12.6065 57.2038 10.2343 51.4374C7.86213 45.671 7.25191 39.331 8.48069 33.218C9.70947 27.1051 12.7221 21.4933 17.1382 17.0914C21.5543 12.6895 27.1758 9.695 33.2927 8.48596C39.4096 7.27692 45.7477 7.9076 51.5064 10.2984C57.2651 12.6891 62.1862 16.7327 65.6482 21.9185C69.1103 27.1044 70.958 33.1998 70.958 39.435C70.9334 47.8122 67.5877 55.8377 61.6546 61.7517C55.7215 67.6657 47.6852 70.9855 39.308 70.983Z" fill="white"/>
<path d="M46.745 56.5H54.5553V21.9185H46.745V56.5ZM39.308 3.05216e-05C31.514 0.0251313 23.9021 2.35927 17.4338 6.70768C10.9655 11.0561 5.93078 17.2237 2.9655 24.4317C0.000225782 31.6397 -0.762622 39.5647 0.773298 47.206C2.30922 54.8472 6.07502 61.862 11.5951 67.3644C17.1152 72.8668 24.1421 76.61 31.7882 78.1213C39.4344 79.6327 47.3569 78.8443 54.5553 75.8559C61.7537 72.8675 67.9052 67.813 72.2327 61.3307C76.5603 54.8484 78.87 47.2291 78.87 39.435C78.8493 28.9606 74.6705 18.9229 67.2521 11.5282C59.8336 4.13354 49.7825 -0.0129793 39.308 3.05216e-05ZM39.308 70.983C33.0728 70.9629 26.9834 69.0955 21.8088 65.6167C16.6342 62.138 12.6065 57.2038 10.2343 51.4374C7.86213 45.671 7.25191 39.331 8.48069 33.218C9.70947 27.1051 12.7221 21.4933 17.1382 17.0914C21.5543 12.6895 27.1758 9.695 33.2927 8.48596C39.4096 7.27692 45.7477 7.9076 51.5064 10.2984C57.2651 12.6891 62.1862 16.7327 65.6482 21.9185C69.1103 27.1044 70.958 33.1998 70.958 39.435C70.9334 47.8122 67.5877 55.8377 61.6546 61.7517C55.7215 67.6657 47.6852 70.9855 39.308 70.983Z" fill="white"/>
<path d="M46.745 56.5H54.5553V21.9185H46.745V56.5ZM39.308 3.05216e-05C31.514 0.0251313 23.9021 2.35927 17.4338 6.70768C10.9655 11.0561 5.93078 17.2237 2.9655 24.4317C0.000225782 31.6397 -0.762622 39.5647 0.773298 47.206C2.30922 54.8472 6.07502 61.862 11.5951 67.3644C17.1152 72.8668 24.1421 76.61 31.7882 78.1213C39.4344 79.6327 47.3569 78.8443 54.5553 75.8559C61.7537 72.8675 67.9052 67.813 72.2327 61.3307C76.5603 54.8484 78.87 47.2291 78.87 39.435C78.8493 28.9606 74.6705 18.9229 67.2521 11.5282C59.8336 4.13354 49.7825 -0.0129793 39.308 3.05216e-05ZM39.308 70.983C33.0728 70.9629 26.9834 69.0955 21.8088 65.6167C16.6342 62.138 12.6065 57.2038 10.2343 51.4374C7.86213 45.671 7.25191 39.331 8.48069 33.218C9.70947 27.1051 12.7221 21.4933 17.1382 17.0914C21.5543 12.6895 27.1758 9.695 33.2927 8.48596C39.4096 7.27692 45.7477 7.9076 51.5064 10.2984C57.2651 12.6891 62.1862 16.7327 65.6482 21.9185C69.1103 27.1044 70.958 33.1998 70.958 39.435C70.9334 47.8122 67.5877 55.8377 61.6546 61.7517C55.7215 67.6657 47.6852 70.9855 39.308 70.983Z" fill="white"/>
</svg>
