<svg width="177" height="114" viewBox="0 0 177 114" fill="none" xmlns="http://www.w3.org/2000/svg">
<g clip-path="url(#clip0_8_35)">
<path d="M62.11 22.24L74.34 54.62H86.17L94.08 33.72V0.0100098H94.04L80.36 37.11L66.47 0.0100098H48.83V54.62H62.11V22.24Z" fill="white"/>
<path d="M111.49 33.7H111.56H126.56V22.38H111.56H111.49V12.65H111.56H128.08V0H98.27V0.01V22.64V54.62H111.49V33.7Z" fill="white"/>
<path d="M12.34 85.07L6.91 70.59H0V91.91H5.2V79.27L9.98 91.91H14.62L19.35 79.42V91.91H24.55V70.59H17.69L12.34 85.07Z" fill="white"/>
<path d="M35.47 92.25C40.33 92.25 43.33 88.93 43.33 83.77V70.56H38.1V84C38.1 85.78 37.48 87.23 35.47 87.23C33.46 87.23 32.83 85.74 32.83 84V70.56H27.6V83.77C27.6 88.9 30.6 92.25 35.47 92.25Z" fill="white"/>
<path d="M60.51 85.54C60.51 80.92 57.43 79.84 53.81 78.62C52.23 78.07 50.91 77.62 50.91 76.31C50.9182 76.0731 50.9752 75.8405 51.0775 75.6268C51.1798 75.413 51.3252 75.2227 51.5046 75.0678C51.6839 74.9128 51.8933 74.7967 52.1197 74.7265C52.3461 74.6563 52.5845 74.6337 52.82 74.66C53.114 74.6435 53.4082 74.69 53.6828 74.7963C53.9575 74.9026 54.2063 75.0663 54.4126 75.2764C54.619 75.4865 54.7781 75.7383 54.8794 76.0148C54.9807 76.2913 55.0218 76.5863 55 76.88H59.75C59.75 72.81 57.01 70.12 52.87 70.12C49 70.15 46 72.58 46 76.24C46 79.73 48.09 81.36 51.79 82.66C54.07 83.46 55.26 84.03 55.26 85.46C55.2591 85.7581 55.1953 86.0527 55.0729 86.3245C54.9504 86.5963 54.772 86.8392 54.5493 87.0374C54.3266 87.2356 54.0646 87.3845 53.7804 87.4746C53.4962 87.5646 53.1962 87.5937 52.9 87.56C52.56 87.5741 52.2209 87.5176 51.9039 87.3939C51.5869 87.2703 51.299 87.0822 51.0584 86.8416C50.8178 86.601 50.6297 86.3131 50.5061 85.9961C50.3824 85.6791 50.3259 85.3399 50.34 85H45.25C45.25 89.32 48.35 92.28 52.93 92.28C57.22 92.25 60.51 89.76 60.51 85.54Z" fill="white"/>
<path d="M67.91 70.61H62.68V91.91H67.91V70.61Z" fill="white"/>
<path d="M81.28 75.38C82.3532 75.3676 83.4087 75.6537 84.3287 76.2064C85.2487 76.7591 85.997 77.5567 86.49 78.51H92C91.3244 75.9097 89.7205 73.6465 87.491 72.1475C85.2614 70.6485 82.5603 70.0172 79.8973 70.3729C77.2343 70.7285 74.7936 72.0465 73.0355 74.0781C71.2775 76.1096 70.3237 78.7144 70.3542 81.4008C70.3846 84.0873 71.3972 86.6697 73.2009 88.6609C75.0046 90.6521 77.4746 91.9143 80.145 92.2095C82.8154 92.5047 85.5014 91.8123 87.6964 90.2631C89.8914 88.7139 91.4436 86.415 92.06 83.8H86.56C86.0872 84.7963 85.3383 85.6359 84.4024 86.2191C83.4664 86.8023 82.3827 87.1046 81.28 87.09C79.769 87.0275 78.3407 86.3834 77.2937 85.2922C76.2467 84.201 75.662 82.7473 75.662 81.235C75.662 79.7227 76.2467 78.269 77.2937 77.1778C78.3407 76.0866 79.769 75.4424 81.28 75.38Z" fill="white"/>
<path d="M111.25 75.48V70.54H99.56V91.91H104.76V83.72H110.66V79.29H104.76V75.48H111.25Z" fill="white"/>
<path d="M125.97 86.96H119.01V83.08H125.38V79.19H119.01V75.51H125.97V70.61H113.81V91.91H125.97V86.96Z" fill="white"/>
<path d="M134.51 70.59L126.75 91.91H132.2L133.08 89.27H141.31L142.19 91.91H147.52L139.89 70.59H134.51ZM134.43 85.2L137.2 76.78L140 85.2H134.43Z" fill="white"/>
<path d="M156.06 78.62C154.48 78.07 153.16 77.62 153.16 76.31C153.168 76.0731 153.225 75.8405 153.328 75.6268C153.43 75.413 153.575 75.2227 153.755 75.0678C153.934 74.9128 154.143 74.7967 154.37 74.7265C154.596 74.6563 154.834 74.6337 155.07 74.66C155.36 74.6507 155.648 74.7025 155.916 74.8121C156.184 74.9218 156.426 75.0867 156.626 75.2962C156.826 75.5057 156.98 75.7551 157.077 76.028C157.174 76.3009 157.213 76.5912 157.19 76.88H161.95C161.95 72.81 159.21 70.12 155.07 70.12C151.22 70.12 148.24 72.55 148.24 76.21C148.24 79.7 150.34 81.33 154.04 82.63C156.31 83.43 157.5 84 157.5 85.43C157.501 85.7276 157.438 86.022 157.317 86.2938C157.195 86.5656 157.018 86.8087 156.796 87.007C156.574 87.2054 156.313 87.3545 156.029 87.4446C155.745 87.5348 155.446 87.5638 155.15 87.53C154.813 87.5439 154.476 87.4881 154.161 87.3663C153.846 87.2445 153.56 87.0591 153.32 86.8218C153.08 86.5844 152.891 86.3002 152.765 85.9868C152.64 85.6734 152.58 85.3375 152.59 85H147.49C147.49 89.32 150.6 92.28 155.18 92.28C159.47 92.28 162.76 89.79 162.76 85.57C162.76 80.92 159.68 79.84 156.06 78.62Z" fill="white"/>
<path d="M163.15 70.54V75.48H167.41V91.91H172.61V75.48H176.91V70.54H163.15Z" fill="white"/>
<path d="M40 100.61L37.38 106.46C37.01 107.35 36.72 108.13 36.38 108.96C36.38 108.32 36.38 107.48 36.38 106.22L36.18 100.61H34.87L32.17 106.52C31.64 107.72 31.4 108.35 31.17 108.98C31.17 108.37 31.17 107.71 31.17 106.45L30.96 100.61H29.76L30.24 110.35H31.52L34.23 104.57C34.6065 103.734 34.9402 102.88 35.23 102.01V102.01C35.175 102.943 35.175 103.877 35.23 104.81L35.48 110.35H36.74L41.25 100.61H40Z" fill="white"/>
<path d="M45.57 103.21C45.0722 103.217 44.584 103.348 44.1493 103.59C43.7146 103.833 43.3471 104.18 43.08 104.6V104.6L43.95 100.09H42.75L40.81 110.35H42L42.65 106.85C42.94 105.29 44.1 104.2 45.02 104.2C45.1723 104.184 45.3261 104.204 45.4697 104.257C45.6132 104.31 45.7426 104.396 45.8479 104.507C45.9532 104.618 46.0316 104.752 46.077 104.898C46.1225 105.044 46.1338 105.199 46.11 105.35C46.1118 105.686 46.0783 106.021 46.01 106.35L45.25 110.35H46.44L47.22 106.26C47.2918 105.871 47.3286 105.476 47.33 105.08C47.358 104.837 47.3327 104.591 47.2557 104.359C47.1787 104.127 47.052 103.914 46.8844 103.736C46.7168 103.558 46.5124 103.419 46.2853 103.328C46.0583 103.237 45.8142 103.197 45.57 103.21Z" fill="white"/>
<path d="M52.35 103.21C50.1 103.21 48.54 105.59 48.54 107.69C48.4968 108.057 48.5347 108.428 48.6509 108.778C48.7671 109.129 48.9589 109.449 49.2126 109.717C49.4663 109.985 49.7759 110.194 50.1193 110.33C50.4627 110.465 50.8316 110.523 51.2 110.5C51.9996 110.503 52.7883 110.315 53.5 109.95L53.33 109.05C52.7556 109.37 52.1077 109.536 51.45 109.53C51.1262 109.553 50.8032 109.475 50.5256 109.306C50.248 109.138 50.0295 108.888 49.9 108.59C49.7486 108.168 49.7006 107.715 49.76 107.27C52.33 107.27 54.4 106.83 54.4 105C54.3994 104.742 54.3439 104.488 54.237 104.253C54.1302 104.019 53.9745 103.81 53.7805 103.641C53.5864 103.471 53.3584 103.345 53.1117 103.271C52.8651 103.197 52.6054 103.176 52.35 103.21V103.21ZM49.89 106.34C49.9903 105.778 50.266 105.263 50.6774 104.868C51.0888 104.473 51.6148 104.218 52.18 104.14C52.8 104.14 53.24 104.45 53.24 105.03C53.24 106.11 51.77 106.37 49.89 106.34V106.34Z" fill="white"/>
<path d="M59.25 103.21C58.7711 103.255 58.3151 103.436 57.9359 103.732C57.5567 104.028 57.2701 104.426 57.11 104.88V104.88C57.19 104.34 57.25 103.88 57.3 103.36H56.3C56.22 104.01 56.12 104.94 55.95 105.85L55.09 110.35H56.29L56.86 107.27C57.17 105.65 58.09 104.39 59.12 104.39H59.45L59.68 103.21C59.5372 103.193 59.3928 103.193 59.25 103.21V103.21Z" fill="white"/>
<path d="M63.38 103.21C61.13 103.21 59.57 105.59 59.57 107.69C59.5268 108.057 59.5647 108.428 59.6809 108.778C59.7971 109.129 59.9889 109.449 60.2426 109.717C60.4963 109.985 60.8059 110.194 61.1493 110.33C61.4927 110.465 61.8616 110.523 62.23 110.5C63.0296 110.503 63.8183 110.315 64.53 109.95L64.36 109.05C63.7856 109.37 63.1377 109.536 62.48 109.53C62.1562 109.553 61.8332 109.475 61.5556 109.306C61.278 109.138 61.0595 108.888 60.93 108.59C60.782 108.167 60.7307 107.716 60.78 107.27C63.36 107.27 65.43 106.83 65.43 105C65.4278 104.743 65.3712 104.489 65.2638 104.255C65.1565 104.022 65.0008 103.814 64.8071 103.644C64.6134 103.475 64.3861 103.349 64.1401 103.274C63.8941 103.199 63.6351 103.177 63.38 103.21ZM60.92 106.34C61.0203 105.778 61.296 105.263 61.7074 104.868C62.1188 104.473 62.6448 104.218 63.21 104.14C63.83 104.14 64.27 104.45 64.27 105.03C64.27 106.11 62.8 106.37 60.92 106.34V106.34Z" fill="white"/>
<path d="M68.7 110.35H73.87L74.07 109.32H70.09L70.76 105.77H74.29L74.49 104.76H70.95L71.55 101.64H75.3L75.5 100.61H70.55L68.7 110.35Z" fill="white"/>
<path d="M80.6 103.36L78.48 107.43C78.07 108.23 77.89 108.69 77.73 109.06C77.73 108.67 77.61 108.14 77.51 107.34L76.91 103.34H75.65L76.86 110.34H78L81.88 103.34L80.6 103.36Z" fill="white"/>
<path d="M85.64 103.21C83.39 103.21 81.83 105.59 81.83 107.69C81.7852 108.056 81.8216 108.427 81.9366 108.778C82.0516 109.128 82.2423 109.449 82.4953 109.717C82.7483 109.985 83.0573 110.195 83.4003 110.33C83.7434 110.465 84.112 110.523 84.48 110.5C85.283 110.505 86.0753 110.316 86.79 109.95L86.61 109.05C86.0361 109.372 85.3879 109.537 84.73 109.53C84.4064 109.551 84.0841 109.473 83.8068 109.304C83.5295 109.136 83.3107 108.887 83.18 108.59C83.0354 108.166 82.9875 107.715 83.04 107.27C85.62 107.27 87.68 106.83 87.68 105C87.6792 104.743 87.6239 104.49 87.5177 104.256C87.4114 104.022 87.2567 103.814 87.0638 103.645C86.8709 103.476 86.6441 103.349 86.3987 103.274C86.1532 103.199 85.8946 103.177 85.64 103.21V103.21ZM83.18 106.34C83.2803 105.778 83.556 105.263 83.9674 104.868C84.3788 104.472 84.9048 104.218 85.47 104.14C86.09 104.14 86.53 104.45 86.53 105.03C86.53 106.11 85.06 106.37 83.18 106.34V106.34Z" fill="white"/>
<path d="M92.65 104.41L92.88 103.23C92.7669 103.22 92.6531 103.22 92.54 103.23C92.0611 103.275 91.6051 103.456 91.2259 103.752C90.8467 104.048 90.5601 104.446 90.4 104.9V104.9C90.48 104.36 90.53 103.9 90.59 103.38H89.59C89.51 104.03 89.4 104.96 89.23 105.87L88.38 110.37H89.57L90.15 107.29C90.45 105.67 91.37 104.41 92.41 104.41H92.65Z" fill="white"/>
<path d="M98.25 103.36L96.47 107.25C96.12 108.02 95.91 108.51 95.73 108.96C95.66 108.44 95.57 107.96 95.42 107.12L94.73 103.36H93.44L94.84 109.92C94.8802 110.023 94.8802 110.137 94.84 110.24C94.5 110.86 94.0413 111.407 93.49 111.85C93.1044 112.144 92.6715 112.371 92.21 112.52L92.5 113.52C93.2625 113.307 93.9534 112.893 94.5 112.32C95.5015 111.237 96.3129 109.993 96.9 108.64L99.52 103.33L98.25 103.36Z" fill="white"/>
<path d="M103.37 103.21C101.1 103.21 99.5 105.33 99.5 107.64C99.4704 108.012 99.5193 108.385 99.6436 108.737C99.7678 109.089 99.9645 109.41 100.221 109.681C100.477 109.951 100.788 110.165 101.132 110.308C101.477 110.451 101.847 110.52 102.22 110.51C104.57 110.51 106.1 108.27 106.1 106.11C106.134 105.735 106.088 105.357 105.966 105.001C105.843 104.645 105.646 104.32 105.388 104.045C105.13 103.771 104.816 103.555 104.469 103.411C104.121 103.267 103.746 103.199 103.37 103.21V103.21ZM102.37 109.56C101.37 109.56 100.71 108.73 100.71 107.56C100.71 105.96 101.71 104.12 103.22 104.12C104.47 104.12 104.84 105.26 104.84 106.12C104.86 107.73 103.79 109.56 102.39 109.56H102.37Z" fill="white"/>
<path d="M111.7 103.21C111.174 103.216 110.658 103.361 110.205 103.629C109.752 103.898 109.378 104.281 109.12 104.74V104.74L109.3 103.36H108.22C108.14 103.94 108.05 104.62 107.89 105.36L106.96 110.31H108.15L108.78 106.91C109.1 105.19 110.31 104.16 111.17 104.16C112.03 104.16 112.26 104.68 112.26 105.38C112.251 105.678 112.221 105.976 112.17 106.27L111.4 110.27H112.6L113.37 106.19C113.445 105.818 113.488 105.44 113.5 105.06C113.52 104.816 113.488 104.571 113.406 104.34C113.323 104.11 113.192 103.9 113.022 103.725C112.851 103.549 112.645 103.413 112.417 103.324C112.189 103.235 111.944 103.196 111.7 103.21V103.21Z" fill="white"/>
<path d="M118.5 103.21C116.26 103.21 114.7 105.59 114.7 107.69C114.655 108.056 114.692 108.427 114.807 108.778C114.922 109.128 115.112 109.449 115.365 109.717C115.618 109.985 115.927 110.195 116.27 110.33C116.613 110.465 116.982 110.523 117.35 110.5C118.153 110.505 118.945 110.316 119.66 109.95L119.48 109.05C118.906 109.372 118.258 109.537 117.6 109.53C117.276 109.551 116.954 109.473 116.677 109.304C116.399 109.136 116.181 108.887 116.05 108.59C115.899 108.168 115.851 107.715 115.91 107.27C118.49 107.27 120.55 106.83 120.55 105C120.549 104.742 120.494 104.488 120.387 104.253C120.28 104.019 120.125 103.81 119.93 103.641C119.736 103.471 119.508 103.345 119.262 103.271C119.015 103.197 118.755 103.176 118.5 103.21V103.21ZM116.05 106.34C116.15 105.778 116.426 105.263 116.837 104.868C117.249 104.473 117.775 104.218 118.34 104.14C118.96 104.14 119.4 104.45 119.4 105.03C119.4 106.11 117.93 106.37 116.05 106.34V106.34Z" fill="white"/>
<path d="M130.42 101.64L130.63 100.61H125.67L123.82 110.35H129L129.19 109.32H125.22L125.89 105.77H129.42L129.62 104.76H126.08L126.67 101.64H130.42Z" fill="white"/>
<path d="M130.53 108.2C130.497 108.485 130.523 108.775 130.607 109.05C130.692 109.324 130.833 109.578 131.021 109.796C131.209 110.013 131.44 110.189 131.7 110.312C131.96 110.435 132.243 110.502 132.53 110.51C133.126 110.478 133.7 110.271 134.18 109.915C134.66 109.56 135.025 109.071 135.23 108.51V108.51C135.145 109.11 135.092 109.714 135.07 110.32H136.19C136.171 109.233 136.268 108.147 136.48 107.08L137.19 103.44C136.578 103.267 135.946 103.179 135.31 103.18C134.665 103.192 134.029 103.331 133.439 103.591C132.848 103.85 132.315 104.224 131.871 104.691C131.426 105.158 131.079 105.709 130.848 106.311C130.618 106.913 130.51 107.555 130.53 108.2V108.2ZM135.48 106.37C135.13 108.22 133.96 109.52 132.96 109.52C131.96 109.52 131.77 108.76 131.77 107.98C131.77 106.04 133.25 104.16 135.06 104.16C135.34 104.148 135.621 104.182 135.89 104.26L135.48 106.37Z" fill="white"/>
<path d="M139.82 108.81C139.829 108.436 139.876 108.064 139.96 107.7L140.6 104.3H142.27L142.46 103.36H140.79L141.15 101.49L139.91 101.79L139.61 103.36H138.61L138.43 104.3H139.43L138.75 107.84C138.653 108.27 138.599 108.709 138.59 109.15C138.581 109.34 138.614 109.53 138.686 109.706C138.759 109.882 138.869 110.04 139.009 110.169C139.149 110.298 139.316 110.394 139.498 110.451C139.679 110.508 139.871 110.525 140.06 110.5C140.374 110.509 140.688 110.468 140.99 110.38V109.43C140.807 109.474 140.618 109.494 140.43 109.49C140.343 109.492 140.257 109.476 140.177 109.441C140.097 109.407 140.026 109.356 139.968 109.291C139.91 109.226 139.867 109.15 139.841 109.067C139.816 108.984 139.808 108.896 139.82 108.81V108.81Z" fill="white"/>
<path d="M143.2 105.36C143.225 105.744 143.356 106.114 143.578 106.428C143.8 106.743 144.106 106.989 144.46 107.14C145.18 107.54 145.46 107.88 145.46 108.43C145.453 108.593 145.412 108.753 145.341 108.9C145.27 109.047 145.169 109.178 145.046 109.284C144.922 109.391 144.778 109.471 144.622 109.521C144.467 109.57 144.302 109.586 144.14 109.57C143.611 109.553 143.095 109.401 142.64 109.13L142.29 110.02C142.811 110.347 143.416 110.514 144.03 110.5C144.359 110.539 144.692 110.509 145.008 110.412C145.325 110.315 145.617 110.153 145.868 109.937C146.118 109.721 146.32 109.454 146.462 109.155C146.603 108.856 146.681 108.531 146.69 108.2C146.662 107.804 146.527 107.423 146.298 107.098C146.068 106.774 145.754 106.518 145.39 106.36C144.77 106.01 144.39 105.7 144.39 105.19C144.406 105.042 144.451 104.899 144.523 104.769C144.595 104.638 144.691 104.523 144.807 104.43C144.924 104.338 145.057 104.269 145.2 104.227C145.343 104.186 145.492 104.173 145.64 104.19C146.061 104.193 146.474 104.303 146.84 104.51L147.17 103.6C146.724 103.364 146.225 103.247 145.72 103.26C145.416 103.228 145.109 103.258 144.816 103.347C144.524 103.436 144.252 103.583 144.017 103.778C143.782 103.974 143.589 104.215 143.449 104.487C143.308 104.758 143.224 105.055 143.2 105.36V105.36Z" fill="white"/>
</g>
<defs>
<clipPath id="clip0_8_35">
<rect width="176.91" height="113.55" fill="white"/>
</clipPath>
</defs>
</svg>
